<svg width="11" height="18" viewBox="0 0 11 18" fill="none" xmlns="http://www.w3.org/2000/svg">
<path d="M5.432 17.3926L0.896 9.47258V8.41658H1.424C2.272 8.41658 2.984 8.33658 3.56 8.17658C4.152 8.01658 4.616 7.75258 4.952 7.38458C5.288 7.01658 5.488 6.51258 5.552 5.87258H0.896V4.33658H5.528C5.416 3.74458 5.192 3.26458 4.856 2.89658C4.52 2.51258 4.064 2.23258 3.488 2.05658C2.928 1.88058 2.24 1.79258 1.424 1.79258H0.896V0.256577H10.832V1.79258H6.296C6.664 2.09658 6.968 2.45658 7.208 2.87258C7.448 3.28858 7.6 3.77658 7.664 4.33658H10.832V5.87258H7.712C7.6 7.04058 7.152 7.95258 6.368 8.60858C5.6 9.24858 4.576 9.65658 3.296 9.83258L7.88 17.3926H5.432Z" fill="#28231E"/>
</svg>
